<?xml version="1.0" encoding="UTF-8"?>
<svg version="1.1" viewBox="0 0 1000 900" xmlns="http://www.w3.org/2000/svg">
    <title>003</title>
    <g fill="none" fill-rule="evenodd">
        <g fill-rule="nonzero">
            <path d="m257.89 884.74c-21.178-4.58-275.64-45.844-256.91-350.18 18.73-304.34 42.242-395.87 141.17-429.35 98.93-33.485 339.41-191.93 528.12-41.274 188.71 150.66 392.34 285.78 311.53 526.34s-94.037 320.8-304.87 308.53c-210.83-12.28-318.34 7.73-419.05-14.06" fill="#F0F9FC"/>
            <path d="m302.3 818.22c-6.26-1.219-8.585-2.652-5.63-4.336 20.548-11.713 114.02-11.296 159.36-11.254 57.027 0.054 116.36-0.218 167.77 2.67 21.517 1.208 70.236 2.338 78.662 6.311 22.099 10.435-133.23 13.203-158.37 13.329-41.919 0.209-206.03 0.241-241.79-6.72" fill="#E3E3E3"/>
            <path d="m682.76 729.73c9.298 21.203-86.573-32.886-86.573-32.886s-30.795 71.502-51.926 68.081c0 0-57.998-127.8-72.939-171.34-14.942-43.542-46.591-177-46.591-177l138.5-35.195s33.513 135.61 48.271 179.21c14.759 43.605 64.444 153.58 71.259 169.13" fill="#EFEFEF"/>
            <path d="m676.32 707.98c8.602 19.955-87.608-30.759-87.608-30.759s-17.007 65.362-35.976 61.888c0 0-53.598-120.3-67.544-161.22-13.945-40.925-44.019-166.17-44.019-166.17l123.58-31.129s31.771 127.28 45.553 168.26c13.783 40.98 59.705 144.5 66.01 159.13" fill="#fff"/>
            <path d="m609.2 561.6c7.69 22.517 17.068 44.49 26.338 66.389 10.181 24.051 20.655 47.977 31.235 71.854 3.557 8.028 7.132 16.048 10.702 24.07 0.952 2.138 2.05 4.267 2.864 6.462 0.284 0.765 0.632 1.508 0.585 2.34-0.028 0.493 0.212 0.015 7e-3 0.113-1.333 0.642-4.839-0.514-6.391-0.928-3.604-0.963-7.121-2.273-10.589-3.637-8.924-3.511-17.611-7.628-26.209-11.864-13.417-6.611-26.67-13.608-39.701-20.956-1.288-0.726-3.523-0.381-4.17 1.118-4.823 11.175-10.393 22.099-16.47 32.638-4.69 8.133-9.751 16.175-15.89 23.304-3.788 4.399-9.852 11.519-16.422 10.657l1.581 1.116c-14.906-32.851-29.497-65.852-43.727-99-0.924-2.152-5.716-0.771-4.83 1.294 9.518 22.17 19.228 44.258 29.046 66.296 3.454 7.752 6.922 15.498 10.406 23.237 1.256 2.789 2.301 7.009 4.251 9.414 2.192 2.704 7.551 0.937 10.274-0.315 4.658-2.143 8.548-5.823 11.967-9.567 9.091-9.957 16.035-21.997 22.381-33.821 4.326-8.061 8.427-16.288 12.053-24.691-1.39 0.372-2.78 0.745-4.17 1.117 11.743 6.622 23.677 12.928 35.722 18.98 9.142 4.594 18.369 9.062 27.825 12.976 6.383 2.643 13.539 5.898 20.557 6.211 4.217 0.189 8.483-1.762 7.035-6.592-1.801-6.004-5.251-11.9-7.793-17.613-10.484-23.559-20.887-47.156-31.053-70.855-11.461-26.714-23.183-53.513-32.584-81.041-0.754-2.208-5.571-0.876-4.83 1.294" fill="#6A79A8"/>
            <path d="m316.61 737.62c26.399 0.449 84.606-37.659 84.606-37.659s33.867 28.674 55.639 65.082c0 0 50.787-130.83 63.279-175.14s36.656-179.32 36.656-179.32l-140.24-27.424s-25.904 137.26-38.211 181.62c-12.306 44.359-61.724 172.84-61.724 172.84" fill="#EFEFEF"/>
            <path d="m325.25 722.06c22.496-0.208 79.921-40.506 79.921-40.506s23.745 18.976 42.383 45.249c0 0 43.048-107.42 54.764-149.74 11.716-42.323 35.565-170.95 35.565-170.95l-118.91-22.636s-26.885 130.39-38.444 172.75c-11.558 42.367-55.283 165.83-55.283 165.83" fill="#fff"/>
            <path d="m377.84 557.61c-7.171 27.869-17.347 55.02-27.108 82.058-9.735 26.965-19.757 53.827-29.93 80.631-2.158 5.684-4.319 11.366-6.501 17.041-0.572 1.485 0.889 2.053 2.098 2.057 8.344 0.026 16.603-2.656 24.335-5.546 9.851-3.681 19.35-8.278 28.64-13.188 11.409-6.03 22.642-12.528 33.446-19.591-1.154 0.096-2.309 0.192-3.463 0.288 21.492 18.248 40.733 40.655 55.289 64.75 0.885 1.466 3.976 0.617 4.52-0.785 17.505-45.102 34.669-90.383 50.572-136.08 4.551-13.078 9.067-26.199 12.844-39.526 0.648-2.285-4.295-1.75-4.894 0.364-7.557 26.665-17.436 52.753-26.96 78.759-9.735 26.587-19.728 53.079-29.864 79.516-2.097 5.47-4.198 10.94-6.318 16.402 1.506-0.262 3.013-0.523 4.52-0.785-14.728-24.381-34.245-46.953-55.989-65.415-0.945-0.802-2.582-0.288-3.464 0.289-10.139 6.628-20.674 12.714-31.362 18.405-8.625 4.592-17.425 8.916-26.514 12.519-7.863 3.118-16.354 6.095-24.914 6.068 0.699 0.686 1.399 1.372 2.098 2.058 17.613-45.796 34.9-91.78 50.717-138.23 4.772-14.015 9.405-28.083 13.096-42.426 0.598-2.322-4.345-1.77-4.894 0.363" fill="#6A79A8"/>
            <path d="m704.26 379.26c0-112.81-91.449-204.26-204.26-204.26s-204.26 91.448-204.26 204.26c0 112.81 91.449 204.26 204.26 204.26s204.26-91.449 204.26-204.26" fill="#CA9B52"/>
            <path d="m694.14 369.14c0-107.22-86.917-194.14-194.14-194.14s-194.14 86.917-194.14 194.14 86.917 194.14 194.14 194.14 194.14-86.917 194.14-194.14" fill="#FFCC80"/>
            <path d="m706.7 379.07c-0.14404-42.691-13.281-84.591-38.11-119.39-24.139-33.83-58.518-59.983-97.594-74.145-81.098-29.392-174.52-4.043-229.8 62.073-55.63 66.54-63.265 163.74-18.437 238.06 21.445 35.551 53.691 64.127 91.482 81.287 39.238 17.818 83.796 22.674 126.03 14.325 83.391-16.484 150.06-85.148 163.75-169.08 1.787-10.957 2.636-22.032 2.673-33.131 0.008964-2.522-4.885-1.804-4.892 0.368-0.142 42.007-13.01 83.362-37.449 117.61-23.581 33.047-57.015 58.752-95.2 72.64-79.965 29.081-171.76 3.252-225.39-62.585-53.163-65.261-60.193-159.41-17.16-231.8 20.965-35.266 52.747-63.743 90.101-80.705 38.496-17.481 82.227-22.169 123.62-13.698 81.726 16.724 146.2 84.932 159.05 167.22 1.62 10.368 2.391 20.827 2.427 31.319 8e-3 2.524 4.9 1.802 4.892-0.368" fill="#6A79A8"/>
            <path d="m664.21 379.26c0-90.69-73.518-164.21-164.21-164.21s-164.21 73.518-164.21 164.21 73.518 164.21 164.21 164.21 164.21-73.518 164.21-164.21" fill="#F9F9F9"/>
            <path d="m656.07 371.12c0-86.196-69.876-156.07-156.07-156.07s-156.07 69.875-156.07 156.07 69.876 156.07 156.07 156.07 156.07-69.876 156.07-156.07" fill="#fff"/>
            <path d="m666.66 379.07c-0.29104-69.278-44.335-132.51-109.7-156.01-65.437-23.531-140.76-2.921-185.22 50.467-44.653 53.618-50.711 131.78-14.617 191.56 36.038 59.68 107.38 90.456 175.58 76.868 67.234-13.395 121.02-68.897 131.87-136.65 1.39-8.68 2.047-17.443 2.084-26.231 0.009955-2.522-4.884-1.804-4.893 0.368-0.282 67.269-42.54 129.27-106.02 152.51-63.979 23.423-137.53 2.826-180.61-49.744-42.904-52.356-48.714-128.05-14.171-186.3 34.763-58.625 104.36-89.383 171.13-75.793 65.404 13.313 117.06 67.8 127.62 133.57 1.369 8.528 2.016 17.133 2.052 25.768 0.011 2.524 4.902 1.801 4.893-0.368" fill="#6A79A8"/>
            <g transform="translate(471 274)" fill="#FFCC80">
                <path d="m57.6 201.6h-57.6v-43.2h57.6v43.2zm-7.2-72h-43.2l-7.2-129.6h57.6l-7.2 129.6z"/>
            </g>
        </g>
    </g>
</svg>
